<?xml version="1.0" encoding="iso-8859-1"?>
<!-- Generator: Adobe Illustrator 19.0.0, SVG Export Plug-In . SVG Version: 6.00 Build 0)  -->
<svg version="1.1" id="Layer_1" xmlns="http://www.w3.org/2000/svg" xmlns:xlink="http://www.w3.org/1999/xlink" x="0px" y="0px"
	 viewBox="0 0 503.641 503.641" style="enable-background:new 0 0 503.641 503.641;" xml:space="preserve">
<path style="fill:#FFE100;" d="M327.361,0.034h-8.393l8.393,92.328c0,9.233,7.554,16.787,16.787,16.787h75.541V478.46
	c0,9.233-6.715,16.787-14.269,16.787h28.538c5.875,0,10.911-5.036,10.911-10.911V109.149L327.361,0.034z"/>
<path style="fill:#FECC00;" d="M419.689,109.149h-83.934c-9.233,0-16.787-7.554-16.787-16.787V8.427L419.689,109.149z"/>
<path style="fill:#FFE100;" d="M394.509,109.149h-61.272c-7.554,0-14.269-7.554-14.269-16.787V8.427H106.614
	c-7.554,0-14.269,7.554-14.269,16.787V478.46c0,9.233,6.715,16.787,14.269,16.787H380.24c7.554,0,14.269-7.554,14.269-16.787
	V109.149z"/>
<path style="fill:#FFA800;" d="M394.509,109.149V478.46c0,9.233-6.715,16.787-14.269,16.787h22.662
	c9.233,0,16.787-7.554,16.787-16.787V109.149H394.509z"/>
<path style="fill:#FFFFFF;" d="M92.345,478.46V25.214c0-9.233,6.715-16.787,14.269-16.787H83.951
	c-9.233,0-16.787,7.554-16.787,16.787V478.46c0,9.233,7.554,16.787,16.787,16.787h22.662
	C99.06,495.247,92.345,487.693,92.345,478.46"/>
<path d="M402.902,503.641H83.951c-14.269,0-25.18-10.911-25.18-25.18V218.264c0-5.036,3.357-8.393,8.393-8.393
	s8.393,3.357,8.393,8.393V478.46c0,5.036,3.357,8.393,8.393,8.393h318.951c5.036,0,8.393-3.357,8.393-8.393V117.542h-75.541
	c-14.269,0-25.18-10.911-25.18-25.18V16.821H83.951c-5.036,0-8.393,4.197-8.393,8.393v125.902c0,5.036-3.357,8.393-8.393,8.393
	s-8.393-3.357-8.393-8.393V25.214c0-14.269,10.911-25.18,25.18-25.18h235.016c5.036,0,8.393,3.357,8.393,8.393v83.934
	c0,5.036,3.357,8.393,8.393,8.393h83.934c5.036,0,8.393,3.357,8.393,8.393V478.46C428.083,492.729,417.171,503.641,402.902,503.641z
	"/>
<path d="M75.558,184.69c0-5.036-3.357-8.393-8.393-8.393s-8.393,3.357-8.393,8.393c0,5.036,3.357,8.393,8.393,8.393
	S75.558,189.726,75.558,184.69"/>
<g>
	<polygon style="fill:#00DA6C;" points="125.919,428.1 176.279,428.1 176.279,310.591 125.919,310.591 	"/>
	<polygon style="fill:#00DA6C;" points="310.574,419.706 360.935,419.706 360.935,260.231 310.574,260.231 	"/>
	<polygon style="fill:#00DA6C;" points="218.247,428.1 268.607,428.1 268.607,226.657 218.247,226.657 	"/>
</g>
<path d="M419.689,117.542h-83.934c-14.269,0-25.18-10.911-25.18-25.18V8.427c0-3.357,1.679-6.715,5.036-7.554
	c3.357-1.679,6.715-0.839,9.233,1.679l100.721,100.721c2.518,2.518,3.357,5.875,1.679,9.233
	C426.404,115.864,423.047,117.542,419.689,117.542z M327.361,28.572v63.79c0,5.036,3.357,8.393,8.393,8.393h63.79L327.361,28.572z"
	/>
<path d="M377.722,436.493h-268.59c-5.036,0-8.393-3.357-8.393-8.393c0-5.036,3.357-8.393,8.393-8.393h268.59
	c5.036,0,8.393,3.357,8.393,8.393C386.115,433.136,382.758,436.493,377.722,436.493z"/>
<path d="M176.279,436.493h-50.361c-5.036,0-8.393-3.357-8.393-8.393V310.591c0-5.036,3.357-8.393,8.393-8.393h50.361
	c5.036,0,8.393,3.357,8.393,8.393V428.1C184.673,433.136,181.315,436.493,176.279,436.493z M134.312,419.706h33.574V318.985h-33.574
	V419.706z"/>
<path d="M268.607,436.493h-50.361c-5.036,0-8.393-3.357-8.393-8.393V226.657c0-5.036,3.357-8.393,8.393-8.393h50.361
	c5.036,0,8.393,3.357,8.393,8.393V428.1C277.001,433.136,273.643,436.493,268.607,436.493z M226.64,419.706h33.574V235.05H226.64
	V419.706z"/>
<path d="M360.935,436.493h-50.361c-5.036,0-8.393-3.357-8.393-8.393V260.231c0-5.036,3.357-8.393,8.393-8.393h50.361
	c5.036,0,8.393,3.357,8.393,8.393V428.1C369.328,433.136,365.971,436.493,360.935,436.493z M318.968,419.706h33.574V268.624h-33.574
	V419.706z"/>
<path d="M226.64,117.542H117.525c-5.036,0-8.393-3.357-8.393-8.393c0-5.036,3.357-8.393,8.393-8.393H226.64
	c5.036,0,8.393,3.357,8.393,8.393C235.033,114.185,231.676,117.542,226.64,117.542z"/>
<path d="M184.673,151.116h-67.148c-5.036,0-8.393-3.357-8.393-8.393c0-5.036,3.357-8.393,8.393-8.393h67.148
	c5.036,0,8.393,3.357,8.393,8.393C193.066,147.759,189.709,151.116,184.673,151.116z"/>
<path d="M226.64,151.116h-8.393c-5.036,0-8.393-3.357-8.393-8.393c0-5.036,3.357-8.393,8.393-8.393h8.393
	c5.036,0,8.393,3.357,8.393,8.393C235.033,147.759,231.676,151.116,226.64,151.116z"/>
<g>
</g>
<g>
</g>
<g>
</g>
<g>
</g>
<g>
</g>
<g>
</g>
<g>
</g>
<g>
</g>
<g>
</g>
<g>
</g>
<g>
</g>
<g>
</g>
<g>
</g>
<g>
</g>
<g>
</g>
</svg>
