<?xml version="1.0" encoding="iso-8859-1"?>
<!-- Generator: Adobe Illustrator 19.0.0, SVG Export Plug-In . SVG Version: 6.00 Build 0)  -->
<svg version="1.1" id="Layer_1" xmlns="http://www.w3.org/2000/svg" xmlns:xlink="http://www.w3.org/1999/xlink" x="0px" y="0px"
	 viewBox="0 0 496 496" style="enable-background:new 0 0 496 496;" xml:space="preserve">
<path style="fill:#FF9900;" d="M124,64c-1.6,0-2.4,0-4,0c-44,0-80,36-80,80s36,80,80,80c4,0,8,0,12-0.8c38.4-6.4,68-39.2,68-79.2
	C200,101.6,166.4,66.4,124,64z M160,112h-56v24h48c4,0,8,4,8,8v40c0,4-4,8-8,8h-24v16h-16v-16H88v-16h56v-24H96c-4,0-8-4-8-8v-40
	c0-4,4-8,8-8h16V80h12h4v16h32V112z"/>
<path style="fill:#FFC600;" d="M48,152c0,20,7.2,38.4,20,52c14.4,12,32,20,52,20c4,0,8,0,12-0.8c38.4-6.4,68-39.2,68-79.2
	c0-20-7.2-38.4-20-52.8C167.2,80,150.4,72.8,132,72c-1.6,0-2.4,0-4,0C84,72,48,108,48,152z M88,176h56v-24H96c-4,0-8-4-8-8v-40
	c0-4,4-8,8-8h16V80h12h4v16h32v16h-56v24h48c4,0,8,4,8,8v40c0,4-4,8-8,8h-24v16h-16v-16H88V176z"/>
<path style="fill:#FF9900;" d="M120,40c57.6,0,104,46.4,104,104s-46.4,104-104,104S16,201.6,16,144S62.4,40,120,40z M216,144
	c0-52.8-43.2-96-96-96s-96,43.2-96,96s43.2,96,96,96S216,196.8,216,144z"/>
<path style="fill:#42210B;" d="M496,320v64c0,48.8-39.2,88-88,88s-88-39.2-88-88v-64c0-48.8,39.2-88,88-88S496,271.2,496,320z
	 M480,384v-48v-16c0-40-32-72-72-72s-72,32-72,72v16v48c0,40,32,72,72,72S480,424,480,384z"/>
<path style="fill:#E0CBB5;" d="M408,248c-40,0-72,32-72,72v16v48c0,40,32,72,72,72s72-32,72-72v-48v-16C480,280,448,248,408,248z
	 M400,272h16v32h-16V272z M344,336v-16h128v16H344z"/>
<path style="fill:#FFF8EF;" d="M408,248c-31.2,0-56,32-56,72v16v48c0,40,24.8,72,56,72s56-32,56-72v-48v-16
	C464,280,439.2,248,408,248z"/>
<g>
	<rect x="344" y="320" style="fill:#42210B;" width="128" height="16"/>
	<rect x="400" y="272" style="fill:#42210B;" width="16" height="32"/>
	<path style="fill:#42210B;" d="M416,80v136h-16V88H272V72h136C412,72,416,75.2,416,80z"/>
	<path style="fill:#42210B;" d="M272,424v16H120c-4,0-8-4-8-8V320h16v104H272z"/>
	<path style="fill:#42210B;" d="M120,24c66.4,0,120,53.6,120,120s-53.6,120-120,120S0,210.4,0,144S53.6,24,120,24z M224,144
		c0-57.6-46.4-104-104-104S16,86.4,16,144s46.4,104,104,104S224,201.6,224,144z"/>
	<path style="fill:#42210B;" d="M120,48c52.8,0,96,43.2,96,96s-43.2,96-96,96s-96-43.2-96-96S67.2,48,120,48z M200,144
		c0-42.4-33.6-77.6-76-80c-1.6,0-2.4,0-4,0c-44,0-80,36-80,80s36,80,80,80c4,0,8,0,12-0.8C170.4,216.8,200,184,200,144z"/>
	<path style="fill:#42210B;" d="M160,144v40c0,4-4,8-8,8h-24v16h-16v-16H88v-16h56v-24H96c-4.8,0-8-4-8-8v-40c0-4.8,3.2-8,8-8h16V80
		h12h4v16h32v16h-56v24h48C156,136,160,140,160,144z"/>
</g>
<g>
</g>
<g>
</g>
<g>
</g>
<g>
</g>
<g>
</g>
<g>
</g>
<g>
</g>
<g>
</g>
<g>
</g>
<g>
</g>
<g>
</g>
<g>
</g>
<g>
</g>
<g>
</g>
<g>
</g>
</svg>
